<svg xmlns="http://www.w3.org/2000/svg" xmlns:xlink="http://www.w3.org/1999/xlink" version="1.1" width="1000" height="1000" viewBox="0 0 1000 1000" xml:space="preserve">
<desc>Created with Fabric.js 3.5.0</desc>
<defs>
</defs>
<rect x="0" y="0" width="100%" height="100%" fill="#ffffff"/>
<g transform="matrix(0.6944 0 0 0.6944 499.968 499.9876)" id="431011">
<g style="" vector-effect="non-scaling-stroke">
		<g transform="matrix(1 0 0 1 -282.515 -235.605)">
<circle style="stroke: none; stroke-width: 1; stroke-dasharray: none; stroke-linecap: butt; stroke-dashoffset: 0; stroke-linejoin: miter; stroke-miterlimit: 4; is-custom-font: none; font-file-url: none; fill: rgb(51,121,194); fill-opacity: 0.58; fill-rule: nonzero; opacity: 0.46;" cx="0" cy="0" r="5.515"/>
</g>
		<g transform="matrix(1 0 0 1 429.08 173.71)">
<circle style="stroke: none; stroke-width: 1; stroke-dasharray: none; stroke-linecap: butt; stroke-dashoffset: 0; stroke-linejoin: miter; stroke-miterlimit: 4; is-custom-font: none; font-file-url: none; fill: rgb(51,121,194); fill-opacity: 0.58; fill-rule: nonzero; opacity: 0.46;" cx="0" cy="0" r="8.64"/>
</g>
		<g transform="matrix(1 0 0 1 294.185 -175.135)">
<circle style="stroke: none; stroke-width: 1; stroke-dasharray: none; stroke-linecap: butt; stroke-dashoffset: 0; stroke-linejoin: miter; stroke-miterlimit: 4; is-custom-font: none; font-file-url: none; fill: rgb(51,121,194); fill-opacity: 0.58; fill-rule: nonzero; opacity: 0.46;" cx="0" cy="0" r="5.025"/>
</g>
		<g transform="matrix(1 0 0 1 -80.11 -219.8)">
<circle style="stroke: none; stroke-width: 1; stroke-dasharray: none; stroke-linecap: butt; stroke-dashoffset: 0; stroke-linejoin: miter; stroke-miterlimit: 4; is-custom-font: none; font-file-url: none; fill: rgb(51,121,194); fill-opacity: 0.58; fill-rule: nonzero; opacity: 0.46;" cx="0" cy="0" r="7.06"/>
</g>
		<g transform="matrix(1 0 0 1 307.4 9.56)">
<circle style="stroke: none; stroke-width: 1; stroke-dasharray: none; stroke-linecap: butt; stroke-dashoffset: 0; stroke-linejoin: miter; stroke-miterlimit: 4; is-custom-font: none; font-file-url: none; fill: rgb(51,121,194); fill-opacity: 0.58; fill-rule: nonzero; opacity: 0.46;" cx="0" cy="0" r="7.13"/>
</g>
		<g transform="matrix(1 0 0 1 -466.61 272.83)">
<circle style="stroke: none; stroke-width: 1; stroke-dasharray: none; stroke-linecap: butt; stroke-dashoffset: 0; stroke-linejoin: miter; stroke-miterlimit: 4; is-custom-font: none; font-file-url: none; fill: rgb(51,121,194); fill-opacity: 0.58; fill-rule: nonzero; opacity: 0.46;" cx="0" cy="0" r="6.52"/>
</g>
		<g transform="matrix(1 0 0 1 -189.805 169.945)">
<circle style="stroke: none; stroke-width: 1; stroke-dasharray: none; stroke-linecap: butt; stroke-dashoffset: 0; stroke-linejoin: miter; stroke-miterlimit: 4; is-custom-font: none; font-file-url: none; fill: rgb(51,121,194); fill-opacity: 0.58; fill-rule: nonzero; opacity: 0.46;" cx="0" cy="0" r="5.175"/>
</g>
		<g transform="matrix(1 0 0 1 494.965 -165.465)">
<circle style="stroke: none; stroke-width: 1; stroke-dasharray: none; stroke-linecap: butt; stroke-dashoffset: 0; stroke-linejoin: miter; stroke-miterlimit: 4; is-custom-font: none; font-file-url: none; fill: rgb(51,121,194); fill-opacity: 0.58; fill-rule: nonzero; opacity: 0.46;" cx="0" cy="0" r="6.095"/>
</g>
		<g transform="matrix(1 0 0 1 -26.03 -94.57)">
<circle style="stroke: none; stroke-width: 1; stroke-dasharray: none; stroke-linecap: butt; stroke-dashoffset: 0; stroke-linejoin: miter; stroke-miterlimit: 4; is-custom-font: none; font-file-url: none; fill: rgb(51,121,194); fill-opacity: 0.58; fill-rule: nonzero; opacity: 0.46;" cx="0" cy="0" r="6.12"/>
</g>
		<g transform="matrix(1 0 0 1 -195.1 -242.01)">
<circle style="stroke: none; stroke-width: 1; stroke-dasharray: none; stroke-linecap: butt; stroke-dashoffset: 0; stroke-linejoin: miter; stroke-miterlimit: 4; is-custom-font: none; font-file-url: none; fill: rgb(51,121,194); fill-opacity: 0.58; fill-rule: nonzero; opacity: 0.46;" cx="0" cy="0" r="9.05"/>
</g>
		<g transform="matrix(1 0 0 1 -542.13 70.64)">
<circle style="stroke: none; stroke-width: 1; stroke-dasharray: none; stroke-linecap: butt; stroke-dashoffset: 0; stroke-linejoin: miter; stroke-miterlimit: 4; is-custom-font: none; font-file-url: none; fill: rgb(51,121,194); fill-opacity: 0.58; fill-rule: nonzero; opacity: 0.46;" cx="0" cy="0" r="4.7"/>
</g>
		<g transform="matrix(1 0 0 1 -435.885 -34.765)">
<circle style="stroke: none; stroke-width: 1; stroke-dasharray: none; stroke-linecap: butt; stroke-dashoffset: 0; stroke-linejoin: miter; stroke-miterlimit: 4; is-custom-font: none; font-file-url: none; fill: rgb(51,121,194); fill-opacity: 0.58; fill-rule: nonzero; opacity: 0.46;" cx="0" cy="0" r="6.005"/>
</g>
		<g transform="matrix(1 0 0 1 -477.67 -9.45)">
<circle style="stroke: none; stroke-width: 1; stroke-dasharray: none; stroke-linecap: butt; stroke-dashoffset: 0; stroke-linejoin: miter; stroke-miterlimit: 4; is-custom-font: none; font-file-url: none; fill: rgb(51,121,194); fill-opacity: 0.58; fill-rule: nonzero; opacity: 0.46;" cx="0" cy="0" r="5.56"/>
</g>
		<g transform="matrix(1 0 0 1 -139.79 -73.6)">
<circle style="stroke: none; stroke-width: 1; stroke-dasharray: none; stroke-linecap: butt; stroke-dashoffset: 0; stroke-linejoin: miter; stroke-miterlimit: 4; is-custom-font: none; font-file-url: none; fill: rgb(51,121,194); fill-opacity: 0.58; fill-rule: nonzero; opacity: 0.46;" cx="0" cy="0" r="7.91"/>
</g>
		<g transform="matrix(1 0 0 1 568.885 -79.265)">
<circle style="stroke: none; stroke-width: 1; stroke-dasharray: none; stroke-linecap: butt; stroke-dashoffset: 0; stroke-linejoin: miter; stroke-miterlimit: 4; is-custom-font: none; font-file-url: none; fill: rgb(51,121,194); fill-opacity: 0.58; fill-rule: nonzero; opacity: 0.46;" cx="0" cy="0" r="5.545"/>
</g>
		<g transform="matrix(1 0 0 1 554.9 55.6)">
<circle style="stroke: none; stroke-width: 1; stroke-dasharray: none; stroke-linecap: butt; stroke-dashoffset: 0; stroke-linejoin: miter; stroke-miterlimit: 4; is-custom-font: none; font-file-url: none; fill: rgb(51,121,194); fill-opacity: 0.58; fill-rule: nonzero; opacity: 0.46;" cx="0" cy="0" r="7.46"/>
</g>
		<g transform="matrix(1 0 0 1 311 -233.64)">
<circle style="stroke: none; stroke-width: 1; stroke-dasharray: none; stroke-linecap: butt; stroke-dashoffset: 0; stroke-linejoin: miter; stroke-miterlimit: 4; is-custom-font: none; font-file-url: none; fill: rgb(51,121,194); fill-opacity: 0.58; fill-rule: nonzero; opacity: 0.46;" cx="0" cy="0" r="8.45"/>
</g>
		<g transform="matrix(1 0 0 1 598.285 230.335)">
<circle style="stroke: none; stroke-width: 1; stroke-dasharray: none; stroke-linecap: butt; stroke-dashoffset: 0; stroke-linejoin: miter; stroke-miterlimit: 4; is-custom-font: none; font-file-url: none; fill: rgb(51,121,194); fill-opacity: 0.58; fill-rule: nonzero; opacity: 0.46;" cx="0" cy="0" r="6.085"/>
</g>
		<g transform="matrix(1 0 0 1 48.72 97.56)">
<circle style="stroke: none; stroke-width: 1; stroke-dasharray: none; stroke-linecap: butt; stroke-dashoffset: 0; stroke-linejoin: miter; stroke-miterlimit: 4; is-custom-font: none; font-file-url: none; fill: rgb(51,121,194); fill-opacity: 0.58; fill-rule: nonzero; opacity: 0.46;" cx="0" cy="0" r="7.33"/>
</g>
		<g transform="matrix(1 0 0 1 -124.08 -157.83)">
<circle style="stroke: none; stroke-width: 1; stroke-dasharray: none; stroke-linecap: butt; stroke-dashoffset: 0; stroke-linejoin: miter; stroke-miterlimit: 4; is-custom-font: none; font-file-url: none; fill: rgb(51,121,194); fill-opacity: 0.58; fill-rule: nonzero; opacity: 0.46;" cx="0" cy="0" r="5.06"/>
</g>
		<g transform="matrix(1 0 0 1 -270.35 62.9121)">
<path style="stroke: none; stroke-width: 1; stroke-dasharray: none; stroke-linecap: butt; stroke-dashoffset: 0; stroke-linejoin: miter; stroke-miterlimit: 4; is-custom-font: none; font-file-url: none; fill: rgb(51,121,194); fill-opacity: 0.58; fill-rule: nonzero; opacity: 0.46;" transform=" translate(-449.65, -342.9121)" d="M 526.1 430.4 L 513.5 414.8 L 526.7 412.2 C 528.1 412 529.4 410.4 529.5 408.4 C 528.7 406.8 527.2 405.5 525.7 405.7 L 508.2 408.7 L 496.5 394.2 L 532.2 388.3 C 534.4 387.7 535.7 386.1 534.9 384.5 C 535 382.5 533.4 381.2 531.2 381.7 L 491.9 388.3 L 481 375.4 L 494.5 338.8 L 509.2 336.1 L 535.9 369.1 C 536.5 369.4 537.1 369.6 537.7 369.8 C 538.3 370 539.7 369.9 540.5 369.5 C 542.4 368.1 542.4 366.1 540.9 364.9 L 516.5 334.7 L 534.7 331.8 L 547.5 346.9 C 547.3 347.5 547.9 347.7 548.5 347.9 C 549.7 348.3 551.1 348.2 552.2 347.2 C 553.2 346.2 553.3 344.2 552.5 342.6 L 542 330.5 L 564.6 326.6 C 566 326.4 567.3 324.8 567.4 322.8 C 566.6 321.2 565 319.9 563.6 320.1 L 542.4 323.8 L 547.1 311.2 C 547.8 309.4 546.4 307.5 545.2 307.1 C 543.4 306.4 541.2 307 540.5 308.8 L 534.5 325 L 516.4 327.8 L 528.8 294.2 C 529.5 292.4 528.7 290.7 526.9 290.1 C 525.1 289.4 523.5 290.2 522.8 292 L 509 329.2 L 493.5 332.3 L 468.6 301.9 L 473.7 288.1 L 513.9 281.1 C 515.9 281.2 517.4 279 516.6 277.4 C 516.7 275.4 514.9 274.7 512.9 274.6 L 476.4 280.9 L 482.9 263.5 L 501 260.7 C 502.4 260.5 503.9 258.3 503.7 256.9 S 501.4 254 499.4 253.9 L 485.5 256.3 L 493.3 235.3 C 494 233.5 492.6 231.6 490.8 231 C 489.6 230.5 487.4 231 486.7 232.8 L 478.9 253.9 L 469.4 242.8 C 468.4 241.8 466.6 241.1 464.7 242.4 C 463.7 243.4 463.4 246 464.4 247.1 L 476.3 261.1 L 469.8 278.5 L 446.3 249.9 C 444.7 248.7 442.9 248 441 249.4 C 440 250.3 439.7 253 440.7 254 L 467.1 285.7 L 462 299.5 L 423.3 306.3 L 413.6 293.8 L 427.4 256.6 C 428.1 254.8 427.3 253.1 425.5 252.5 C 423.7 251.8 421.5 252.3 420.8 254.1 L 408.4 287.8 L 396.5 273.8 L 402.5 257.6 C 403.1 255.8 402.4 254.1 400.6 253.5 C 398.8 252.8 397.1 253.6 396.5 255.4 L 391.8 268 L 378.2 251.3 C 377.2 250.3 374.6 250 373.5 251 C 372.3 252.5 371.6 254.3 373.2 255.6 L 387.2 273.1 L 371.9 275.6 C 370.3 276.4 369 277.9 369.1 279.4 C 369.3 280.8 370.3 281.8 371.5 282.3 C 371.5 282.3 372.1 282.5 372.9 282.1 L 392.4 279.1 L 404.3 293.1 L 366.2 300.1 C 364.2 300.1 362.9 301.6 363.5 303.9 C 363.8 304.7 364.2 305.5 365.4 306 C 366 306.2 366.6 306.4 367.2 306.6 L 409 298.9 L 418.3 310.6 L 404.8 347.2 L 388.1 349.9 L 362.6 319.2 C 361.2 317.4 359.2 317.3 357.9 318.9 C 356.3 319.6 356.2 321.7 357.6 323.5 L 380.7 351.2 L 362.4 354.7 L 351.1 340.9 C 350.1 339.9 348.1 339.8 346.5 340.6 C 345.2 342.1 344.5 343.9 346.1 345.2 L 354.5 355.8 L 334.7 359.4 C 332.7 359.3 332 361.1 331.9 363.2 C 332.3 364 333.3 365 334.5 365.5 C 334.5 365.5 335.1 365.7 335.7 365.9 L 356.9 362.2 L 351.3 377.2 C 350.9 378.4 351.4 380.6 353.2 381.3 C 355 382 356.9 380.6 357.3 379.4 L 364.2 360.8 L 382.5 357.4 L 369 394 C 368.3 395.8 369.7 397.6 371.5 398.3 S 374.9 398.2 375.6 396.4 L 390.5 356.2 L 405.8 353.7 L 430.7 384.1 L 424.9 399.7 L 384.2 406.4 C 382.5 407.2 381.2 408.8 381.2 410.8 C 381.6 411.6 382.5 412.6 383.7 413.1 C 384.3 413.3 384.9 413.5 385.8 413.2 L 422.2 406.9 L 415.8 424.3 L 397.4 427.7 C 396 427.9 394.7 429.5 394.7 431.5 C 395.4 433.1 397 434.4 398.4 434.2 L 413.1 431.5 L 406 450.7 C 405.5 451.9 406.7 454.4 407.9 454.8 C 409.7 455.5 412.1 454.3 412.6 453.1 L 419.7 433.9 L 428.4 445.4 C 429 445.6 429.6 445.8 430.2 446 C 431.4 446.5 432.8 446.3 433.7 445.9 C 434.9 444.4 435 442.3 434.2 440.7 L 422.4 426.7 L 428.8 409.3 L 452.4 437.8 C 453.7 439.7 455.7 439.8 456.8 438.8 C 458.7 437.5 458.7 435.4 458 433.8 L 431.5 402.1 L 437.3 386.5 L 476 379.7 L 485.9 391.6 L 471 431.8 C 470.3 433.6 471.1 435.2 472.9 435.9 C 474.7 436.6 476.3 435.8 477 434 L 490.6 397.4 L 502.2 412 L 495.3 430.6 C 494.9 431.8 496 434.2 497.8 434.9 C 499.6 435.6 501.5 434.2 501.9 433 L 507.5 418 L 521.1 434.7 C 521.7 434.9 521.7 434.9 522.3 435.1 C 523.5 435.6 524.9 435.4 525.8 435 C 527 433.4 527.1 431.4 526.1 430.4 Z M 439.9 379.3 L 435.7 379.8 L 433.3 376.9 L 413.1 352.3 L 410.8 349.4 L 412.1 345.8 L 423 316.4 L 424.3 312.8 L 428 312.1 L 459.4 306.7 L 463 306 L 466 309.1 L 485.6 333.5 L 488.5 336.6 L 487.2 340.2 L 476.3 369.6 L 475 373.2 L 470.7 373.7 L 439.9 379.3 Z" stroke-linecap="round"/>
</g>
		<g transform="matrix(1 0 0 1 337.5828 79.6982)">
<path style="stroke: none; stroke-width: 1; stroke-dasharray: none; stroke-linecap: butt; stroke-dashoffset: 0; stroke-linejoin: miter; stroke-miterlimit: 4; is-custom-font: none; font-file-url: none; fill: rgb(51,121,194); fill-opacity: 0.58; fill-rule: nonzero; opacity: 0.46;" transform=" translate(-1057.5828, -359.6982)" d="M 1070 454.7 L 1045.6 409.8 L 1051.3 392 L 1059.5 407.2 C 1059.9 409.1 1061.9 409.2 1063.8 408.8 C 1064.9 407.9 1065.7 405.7 1064.8 404.6 L 1054 383.5 L 1059 365.9 L 1071.4 379.4 L 1070.4 403.3 C 1070.4 403.3 1070.6 403.9 1070.6 403.9 C 1070.9 405.2 1072.4 406.1 1073.8 406.5 C 1075.7 406 1076.8 405.1 1076.9 403.1 L 1077.5 385.9 L 1089.9 399.4 L 1088.6 450.3 C 1088.6 450.3 1088.2 451.1 1088.2 451.1 C 1088.5 452.3 1090 453.3 1091.4 453.6 C 1093.4 453.8 1095 452.1 1094.5 450.3 L 1096 405.9 L 1111.6 421.9 L 1111 441.8 C 1111 441.8 1111 441.8 1111.1 442.4 C 1111.4 443.7 1112.3 444.8 1113.7 445.1 C 1115.6 444.7 1117.3 443.6 1117.5 441.6 L 1117.7 428.4 L 1129 440.2 C 1130.1 441.9 1131.9 441.5 1133 440.6 C 1134.8 439.5 1134.9 437.5 1133.3 435.9 L 1122.6 424 L 1135.3 424.9 C 1137.2 424.5 1138.9 423.4 1138.4 421.6 C 1138.6 419.6 1137.7 418.5 1135.7 418.3 L 1115.8 417.7 L 1100.9 401.5 L 1145.9 402.8 C 1147.3 403.1 1148.8 401.4 1149 399.4 C 1148.7 398.1 1147.7 396.4 1145.7 396.2 L 1094.8 395 L 1082.4 381.5 L 1099.6 382 C 1101.6 382.2 1102.6 380.7 1102.8 378.7 C 1103.1 377.3 1101.4 375.7 1100 375.4 L 1076.3 375 L 1063.3 361.6 L 1081.4 357.4 L 1101.4 369.8 C 1102.9 370.7 1104.8 370.3 1105.7 368.8 C 1106.8 367.9 1106.2 365.4 1104.7 364.4 L 1090.1 355.3 L 1108.2 351.1 L 1151.4 378.5 C 1152.9 379.4 1154.8 379 1155.7 377.4 C 1156.7 375.9 1156.2 374 1154.7 373.1 L 1116.9 349.1 L 1138.1 344.1 L 1155 354.6 C 1156.5 355.6 1158.4 355.1 1159.3 353.6 C 1160.3 352.1 1159.9 350.2 1158.3 349.2 L 1147.4 341.9 L 1163 338.3 C 1164.9 337.8 1165.8 336.3 1165.4 334.4 C 1164.9 332.6 1163.4 331.6 1161.5 332 L 1146 335.7 L 1152.6 324.9 C 1153.6 323.4 1153.2 321.5 1151.6 320.6 S 1148.2 320 1147.3 321.6 L 1137.2 337.7 L 1115.4 342.8 L 1138.8 305.2 C 1139.8 303.6 1139.3 301.7 1137.8 300.8 C 1136.3 299.8 1134.4 300.3 1133.4 301.8 L 1106.7 344.9 L 1088.6 349.1 L 1097.7 334.5 C 1098.7 333 1098.2 331.1 1096.7 330.1 C 1095.1 329.2 1093.3 329.6 1092.3 331.2 L 1079.9 351.1 L 1062.5 355.2 L 1067.7 338.2 L 1088.7 326.8 C 1089.8 325.8 1090.6 323.7 1089.6 322.6 C 1088.6 320.9 1087.2 320.5 1085.3 321 L 1070.1 329.1 L 1075.4 312.1 L 1120.3 287.8 C 1122 286.7 1122.3 285.3 1121.9 283.5 C 1120.8 281.8 1118.8 281.6 1117.6 281.9 L 1077.8 303 L 1084.7 281.7 L 1101.6 272.5 C 1103.5 272 1103.6 270 1103.2 268.1 C 1102.3 267 1100.1 266.2 1098.4 267.3 L 1087.3 273.2 L 1091.6 257.7 C 1092.5 256.2 1091.5 254.5 1089.3 253.6 C 1087.9 253.3 1086.2 254.4 1085.8 255.8 L 1081 271.4 L 1074.9 259.6 C 1073.9 257.9 1071.8 257.7 1070.7 258.6 C 1068.9 259.1 1068.5 260.5 1068.8 261.7 C 1069 262.3 1069 262.3 1069.1 263 L 1078.3 279.9 L 1071.5 301.2 L 1050.5 262.1 C 1050.1 260.2 1048.1 260 1046.2 260.4 C 1045.1 261.4 1044.8 262.7 1045 264 C 1045.2 264.6 1045.2 264.6 1045.2 264.6 L 1069 310.3 L 1063.8 327.3 L 1055.7 312.1 C 1054.6 310.4 1053.2 310.1 1051.3 310.5 C 1050.2 311.4 1049.3 313 1049.6 314.2 C 1049.7 314.8 1049.7 314.8 1049.9 315.5 L 1061.3 336.4 L 1056.1 353.4 L 1043.9 340.5 L 1044.3 316.8 C 1044.4 314.7 1042.8 313.2 1041.4 312.8 C 1039.5 313.3 1037.8 314.3 1038.2 316.2 L 1037.6 333.4 L 1024.8 320.7 L 1026.5 269 C 1026.8 267.6 1025.1 266 1023.8 265.7 C 1021.9 266.1 1020.2 267.2 1020 269.2 L 1018.5 313.6 L 1003.6 297.4 L 1004.3 278.1 C 1004.5 276.1 1002.8 274.5 1000.9 275 C 999.6 274.6 997.8 275.7 997.6 277.7 L 997.4 290.9 L 986.1 279.1 C 985.2 278 983.2 277.8 981.5 278.9 C 981 279.6 980.7 281 981 282.3 C 981 282.3 981.1 282.9 981.3 283.5 L 992.6 295.3 L 979.4 295.1 C 978 294.8 976.4 296.5 976.1 297.9 C 976.2 298.5 976.2 298.5 976.2 298.5 C 976.7 300.4 978.2 301.3 979.4 301 L 998.7 301.8 L 1014.3 317.9 L 969.3 316.6 C 967.4 317 966.3 317.9 966.1 319.9 C 966.1 319.9 966.3 320.6 966.3 320.6 C 966.6 321.8 967.5 322.9 969.5 323.1 L 1020.5 324.9 L 1032.8 337.9 L 1015.5 337.3 C 1013.7 337.7 1011.9 338.8 1012.4 340.7 C 1011.8 340.8 1011.9 341.4 1011.9 341.4 C 1012.2 342.7 1013.7 343.6 1015.1 344 L 1038.9 344.3 L 1051.2 357.9 L 1033.8 361.9 L 1013.8 349.5 C 1012.3 348.6 1009.8 349.2 1008.8 350.7 C 1008.5 352.1 1008.9 354 1009.8 355.1 L 1025.1 364 L 1007 368.2 L 963.9 341.5 C 962.4 340.5 960.5 341 959.6 342.5 C 958.6 344 959 345.9 960.6 346.9 L 998.3 370.2 L 976.5 375.4 L 960.3 365.3 C 958.8 364.4 956.9 364.8 955.9 366.3 S 955.4 369.8 957 370.7 L 967.7 377.4 L 952.2 381 C 950.3 381.5 949.3 383 949.8 384.9 C 950.2 386.8 951.7 387.7 953.6 387.3 L 969.2 383.6 L 962.7 395 C 962.2 395.8 961.7 396.6 961.8 397.2 C 962 397.8 962.9 398.9 963.7 399.4 C 965.2 400.3 967.1 399.9 968 398.4 L 977.9 381.6 L 999.7 376.5 L 976.5 414.8 C 976 415.6 975.5 416.3 975.7 416.9 C 975.8 417.6 976.7 418.7 977.5 419.1 C 979 420.1 980.9 419.7 981.9 418.1 L 1008.4 374.4 L 1026.5 370.2 L 1016.8 385 C 1016.4 385.7 1016.6 387 1016.8 387.6 C 1016.9 388.2 1017.1 388.9 1017.8 389.3 C 1019.4 390.3 1021.9 389.7 1022.2 388.3 L 1035.2 368.2 L 1052.7 364.1 L 1047.6 381.7 L 1026.5 392.6 C 1025.4 393.5 1024.4 395 1024.7 396.3 C 1024.9 396.9 1024.9 396.9 1025.5 396.7 C 1025.9 398.6 1028.1 399.4 1029.8 398.4 L 1045 390.2 L 1039.9 407.8 L 994.2 431.7 C 993.1 432.6 992.8 434 993.1 435.2 C 993.2 435.8 993.2 435.8 993.2 435.8 C 994.3 437.6 995.8 438.5 997.6 437.5 L 1037.3 416.3 L 1030.5 437.6 L 1013.6 446.9 C 1011.8 447.9 1011.5 449.3 1011.8 450.6 C 1011.8 450.6 1011.9 451.2 1011.9 451.2 C 1013 452.9 1015 453.1 1016.3 452.8 L 1027.9 446.1 L 1023 461.7 C 1023.1 462.4 1023.3 463 1023.4 463.6 C 1023.5 464.2 1024.5 465.3 1025.2 465.8 C 1027.2 466 1029.1 465.6 1029.3 463.6 L 1034.2 447.9 L 1040.2 459.7 C 1041.3 461.4 1043.3 461.6 1044.5 461.3 C 1046.3 460.2 1046.5 458.2 1046 456.4 L 1036.8 439.4 L 1043 418.3 L 1064 457.4 C 1065.1 459.1 1067.2 459.9 1068.3 459 C 1070.1 458 1071 456.4 1070 454.7 Z" stroke-linecap="round"/>
</g>
		<g transform="matrix(1 0 0 1 -629.2696 131.45)">
<path style="stroke: none; stroke-width: 1; stroke-dasharray: none; stroke-linecap: butt; stroke-dashoffset: 0; stroke-linejoin: miter; stroke-miterlimit: 4; is-custom-font: none; font-file-url: none; fill: rgb(51,121,194); fill-opacity: 0.58; fill-rule: nonzero; opacity: 0.46;" transform=" translate(-90.7304, -411.45)" d="M 140.2 410.1 L 115.8 420.6 L 93.9 411.6 L 112.6 397.1 L 138.9 400.6 C 138.9 400.6 139.2 400.5 139.2 400.5 C 139.9 400.5 140.4 399.7 140.7 399.1 C 140.8 398.1 140.1 397.2 139.1 397.3 L 116.1 394.4 L 125.1 387.3 L 135.3 388.5 C 135.3 388.5 135.6 388.4 135.6 388.4 C 136.3 388.4 136.8 387.6 137.1 387 C 137.2 386 136.5 385.1 135.5 385.2 L 128.6 384.2 L 135.3 379.1 C 135.9 378.7 136.1 377.4 135.7 376.8 C 135.2 375.9 133.9 376.1 133.4 376.5 L 126.6 381.6 L 127.6 374.7 C 127.8 373.7 127 372.8 126.1 373 C 125.1 372.8 124.2 373.5 124.4 374.5 L 123.2 384.7 L 114.1 391.4 L 117.1 368.4 C 117.2 367.4 116.5 366.5 115.5 366.7 C 114.5 366.5 113.7 367.2 113.8 368.2 L 110.3 394.5 L 91.6 409 L 88.4 385.3 L 104.5 364 C 105 363.3 104.9 362.3 104.2 361.8 C 103.5 361.2 102.5 361.3 102 362.1 L 87.8 380.8 L 86.2 369.4 L 92.2 361.5 C 92.7 360.7 92.6 359.8 91.9 359.2 C 91.2 358.7 90.2 358.8 89.7 359.6 L 85.6 365 L 84.4 356.1 C 84.5 355.1 83.5 354.6 82.6 354.7 C 81.6 354.8 81.1 355.6 81.2 356.5 L 82.3 364.8 L 76.9 360.7 C 76.2 360.1 75.2 360.2 74.7 361 S 74.3 362.6 75 363.2 L 82.9 369.2 L 84.5 380.6 L 65.7 366.4 C 65 365.8 64.1 366 63.5 366.7 C 63 367.4 63.1 368.4 63.8 368.9 L 85.1 385.1 L 88.3 408.5 L 66.4 399.6 L 56.4 375.8 C 55.9 374.9 54.9 374.7 54 374.8 C 53.1 375.2 52.9 376.2 53 377.2 L 62.1 398.6 L 51.5 394.2 L 47.6 384.7 C 47.1 383.8 46.2 383.6 45.2 383.8 C 44.3 384.2 44.1 385.2 44.2 385.8 L 47 392.2 L 39.2 389.1 C 38.5 388.9 37.2 389.1 37 390 C 36.8 391 37 392 38 392.2 L 45.8 395.3 L 39.4 398.1 C 38.5 398.6 38.3 399.6 38.4 400.2 C 38.8 400.8 39.5 401.3 40.2 401.2 C 40.2 401.2 40.5 401.2 40.5 401.2 L 50 397.3 L 60.6 401.7 L 39.2 410.7 C 38.3 411.2 38.1 412.2 38.2 412.8 C 38.6 413.4 39.3 414 40 413.9 C 40 413.9 40.3 413.8 40.3 413.8 L 64.7 403.4 L 86.6 412.3 L 67.9 426.8 L 41.6 423.3 C 40.6 423.2 39.7 423.9 39.9 424.9 C 39.7 425.9 40.4 426.7 41.4 426.6 L 64.4 429.6 L 55.4 436.6 L 45.2 435.4 C 44.2 435.3 43.3 436 43.5 437 C 43.3 438 44.1 438.8 45 438.7 L 51.9 439.7 L 45.2 444.8 C 44.6 445.2 44.5 446.5 44.9 447.1 C 45.3 447.7 46 447.9 46.6 447.8 C 46.9 447.8 47.2 447.8 47.5 447.4 L 54.2 442.3 L 53.2 449.2 C 53 450.2 53.8 451.1 54.8 450.9 C 54.8 450.9 55.1 450.9 55.1 450.9 C 55.7 450.8 56.3 450.1 56.5 449.4 L 57.7 439.2 L 66.7 432.2 L 63.7 455.2 C 63.6 456.2 64.3 457 65.3 456.9 C 65.3 456.9 65.6 456.9 65.6 456.9 C 66.2 456.8 66.8 456.1 67 455.4 L 70.5 429.1 L 89.2 414.5 L 92.4 438 L 76.3 459.3 C 75.7 460 75.8 460.9 76.6 461.5 C 77.3 462 78.2 461.9 78.8 461.2 L 93 442.7 L 94.6 454.2 L 88.6 462.1 C 88.1 462.8 88.2 463.8 88.9 464.3 S 90.6 464.7 91.1 464 L 95.2 458.6 L 96.4 466.8 C 96.5 467.8 97.2 468.3 98.2 468.2 C 99.1 468.1 99.7 467.4 99.5 466.4 L 98.4 458.2 L 103.8 462.3 C 104.2 462.5 104.5 462.8 105.2 462.7 S 106.1 462.3 106.3 461.9 C 106.9 461.2 106.8 460.2 106 459.7 L 98.1 453.7 L 96.5 442.3 L 115.3 456.5 C 115.6 456.8 116 457 116.6 456.9 C 117 456.9 117.5 456.5 117.8 456.1 C 118.4 455.4 118.2 454.5 117.5 453.9 L 96.2 437.8 L 93 414.3 L 114.9 423.3 L 125.4 447.7 C 125.8 448.3 126.5 448.8 127.1 448.7 C 127.1 448.7 127.5 448.7 127.5 448.7 C 128.4 448.2 128.5 447.2 128.5 446.6 L 119.4 425.2 L 130 429.6 L 133.9 439.1 C 134.3 439.7 135 440.2 135.6 440.1 C 135.6 440.1 136 440.1 136 440.1 C 136.9 439.6 137.1 438.6 137 438 L 134.1 431.6 L 142 434.7 C 142.3 434.7 142.7 435 143 434.9 C 143.6 434.8 144.2 434.4 144.5 433.7 C 144.6 432.7 144.5 431.8 143.5 431.6 L 135.7 428.5 L 142.1 425.7 C 143 425.2 143.1 424.2 143.1 423.6 C 142.6 422.7 141.6 422.5 141 422.6 L 131.5 426.5 L 120.9 422.1 L 142.3 413 C 143.2 412.6 143.3 411.6 143.3 411 C 142.2 410.2 141.1 409.6 140.2 410.1 Z" stroke-linecap="round"/>
</g>
		<g transform="matrix(1 0 0 1 73.3845 -119.828)">
<path style="stroke: none; stroke-width: 1; stroke-dasharray: none; stroke-linecap: butt; stroke-dashoffset: 0; stroke-linejoin: miter; stroke-miterlimit: 4; is-custom-font: none; font-file-url: none; fill: rgb(51,121,194); fill-opacity: 0.58; fill-rule: nonzero; opacity: 0.46;" transform=" translate(-793.3845, -160.172)" d="M 839.6 118.5 L 824.5 148 L 796.3 156.9 L 802.6 128.1 L 830.7 110.4 C 830.7 110.4 831 110.1 831 110.1 C 831.5 109.5 831.5 108.4 831.2 107.5 C 830.5 106.4 829.1 106.2 828.3 107.1 L 803.8 122.6 L 806.9 108.6 L 817.6 101.6 C 817.6 101.6 817.9 101.3 817.9 101.3 C 818.4 100.7 818.3 99.6 818 98.8 C 817.4 97.7 816 97.5 815.2 98.3 L 807.7 102.9 L 810.1 92.6 C 810.3 91.8 809.4 90.4 808.6 90.1 C 807.4 89.6 806.3 90.8 806.1 91.7 L 803.7 102 L 799.1 94.5 C 798.5 93.4 797.1 93.2 796.3 94.1 C 795.2 94.7 795 96.1 795.9 96.9 L 802.8 107.7 L 799.5 121.4 L 784 96.9 C 783.3 95.8 781.9 95.6 781.1 96.5 C 780 97.1 779.8 98.5 780.7 99.3 L 798.4 127.4 L 792 156.3 L 769.9 136 L 768.4 102.7 C 768.3 101.6 767.4 100.8 766.3 100.8 C 765.2 100.9 764.4 101.7 764.4 102.9 L 765.7 132.3 L 755.1 122.5 L 754.5 110.1 C 754.5 109 753.6 108.2 752.5 108.2 C 751.3 108.3 750.5 109.2 750.6 110.3 L 751 118.8 L 742.7 111.2 C 742.1 110.1 740.7 110.4 739.9 111.3 C 739.1 112.2 739.1 113.3 740 114.2 L 747.7 121.2 L 739.2 121.6 C 738.1 121.6 737.3 122.5 737.3 123.6 S 738.2 125.6 739.4 125.5 L 751.8 125 L 762.4 134.7 L 733 136 C 731.9 136 731.1 136.9 731.2 138.1 C 731.2 139.2 732.1 140 733.2 139.9 L 766.6 138.5 L 788.4 158.4 L 760.2 167.3 L 731.5 152.5 C 730.4 152 729.3 152.6 728.5 153.5 C 727.9 154.6 728.6 155.7 729.4 156.5 L 755.2 169.8 L 741.5 174.1 L 730.2 168.1 C 729.1 167.6 728 168.2 727.2 169.1 C 726.7 170.2 727.3 171.4 727.9 171.9 L 735.7 175.8 L 725.6 179.1 C 724.8 179.4 723.7 180.6 724.3 181.7 C 724.9 182.8 725.8 183.6 726.9 183 L 737 179.7 L 733.1 187.5 C 732.6 188.7 733.2 189.8 733.8 190.3 C 734.6 190.6 735.8 190.5 736.3 189.9 C 736.3 189.9 736.6 189.6 736.6 189.6 L 742.6 178.3 L 756.3 174 L 743 199.8 C 742.5 201 743.1 202.1 743.7 202.6 C 744.5 202.9 745.7 202.8 746.2 202.2 C 746.2 202.2 746.5 201.9 746.5 201.9 L 761.6 172.4 L 789.8 163.5 L 783.4 192.3 L 755.3 210 C 754.2 210.6 754 212.1 754.9 212.9 C 755.5 214 756.9 214.2 757.7 213.3 L 782.2 197.8 L 779.2 211.8 L 768.5 218.8 C 767.4 219.4 767.1 220.8 768 221.6 C 768.6 222.7 770.1 223 770.9 222.1 L 778.3 217.5 L 775.9 227.8 C 775.7 228.6 776.6 230 777.5 230.3 C 778.3 230.5 779.2 230.2 779.7 229.6 C 780 229.3 780.2 229 780.2 228.4 L 782.6 218.1 L 787.2 225.6 C 787.8 226.7 789.2 226.9 790 226 C 790 226 790.3 225.7 790.3 225.7 C 790.8 225.1 790.8 224 790.5 223.2 L 783.5 212.4 L 786.5 198.4 L 802.1 222.9 C 802.7 224 804.1 224.3 804.9 223.4 C 804.9 223.4 805.2 223.1 805.2 223.1 C 805.7 222.5 805.7 221.4 805.3 220.5 L 787.7 192.4 L 794 163.6 L 815.9 183.5 L 817.4 216.9 C 817.4 218 818.3 218.8 819.4 218.8 C 820.6 218.7 821.4 217.8 821.3 216.7 L 820.3 187.6 L 830.9 197.3 L 831.5 209.7 C 831.5 210.9 832.4 211.7 833.5 211.6 S 835.5 210.7 835.4 209.6 L 835.1 201.1 L 842.7 208.1 C 843.6 208.9 844.7 208.9 845.6 208 C 846.4 207.1 846.3 206 845.4 205.1 L 837.8 198.1 L 846.2 197.7 C 846.8 197.7 847.4 197.7 847.9 197.1 S 848.4 195.9 848.4 195.4 C 848.3 194.3 847.5 193.4 846.3 193.5 L 833.9 194 L 823.3 184.3 L 852.6 183 C 853.2 183 853.8 183 854.3 182.4 C 854.6 182.1 854.8 181.2 854.8 180.7 C 854.8 179.5 853.9 178.7 852.7 178.8 L 819.4 180.3 L 797.6 160.3 L 825.8 151.4 L 855.3 166.5 C 856.2 166.7 857.3 166.7 857.8 166.1 C 857.8 166.1 858.1 165.8 858.1 165.8 C 858.6 164.6 858 163.5 857.4 163 L 831.6 149.7 L 845.3 145.4 L 856.6 151.4 C 857.5 151.7 858.6 151.6 859.1 151 C 859.1 151 859.4 150.7 859.4 150.7 C 859.9 149.6 859.3 148.5 858.7 147.9 L 850.9 144 L 861 140.7 C 861.2 140.4 861.8 140.4 862.1 140.1 C 862.6 139.5 862.8 138.7 862.5 137.8 C 861.9 136.7 861 135.9 859.9 136.5 L 849.9 139.8 L 853.8 132 C 854.3 130.8 853.7 129.7 853.1 129.2 C 851.9 128.7 850.8 129.3 850.3 129.9 L 844.3 141.2 L 830.6 145.5 L 843.9 119.7 C 844.4 118.6 843.8 117.4 843.2 116.9 C 841.5 117 840.1 117.3 839.6 118.5 Z" stroke-linecap="round"/>
</g>
		<g transform="matrix(1 0 0 1 620.9186 20.6646)">
<path style="stroke: none; stroke-width: 1; stroke-dasharray: none; stroke-linecap: butt; stroke-dashoffset: 0; stroke-linejoin: miter; stroke-miterlimit: 4; is-custom-font: none; font-file-url: none; fill: rgb(51,121,194); fill-opacity: 0.58; fill-rule: nonzero; opacity: 0.46;" transform=" translate(-1340.9187, -300.6646)" d="M 1365.9 220.6 L 1368.8 265.2 L 1357.7 277.2 L 1356.8 262.2 C 1357.1 260.5 1355.6 259.7 1354 259.3 C 1352.8 259.7 1351.3 261.1 1351.6 262.3 L 1352.5 283 L 1342.1 295.2 L 1337.2 279.9 L 1346.7 261.3 C 1346.7 261.3 1346.8 260.7 1346.8 260.7 C 1347 259.6 1346.2 258.3 1345.2 257.5 C 1343.5 257.2 1342.3 257.5 1341.4 259.1 L 1334.7 272.5 L 1329.8 257.2 L 1349.4 217.2 C 1349.4 217.2 1350.1 216.8 1350.1 216.8 C 1350.3 215.7 1349.4 214.4 1348.5 213.6 C 1346.9 212.7 1345 213.5 1344.7 215.1 L 1327.3 249.9 L 1320.8 231.4 L 1328.6 215.8 C 1328.6 215.8 1328.6 215.8 1328.7 215.3 C 1328.9 214.2 1328.6 213 1327.6 212.2 C 1325.9 211.9 1324.2 212.1 1323.3 213.6 L 1318.3 224 L 1313.7 210.5 C 1313.4 208.7 1311.8 208.4 1310.6 208.7 C 1308.8 208.9 1307.9 210.5 1308.7 212.3 L 1312.8 225.8 L 1303.1 220.3 C 1301.4 220 1299.7 220.2 1299.3 221.9 C 1298.4 223.4 1298.8 224.6 1300.3 225.5 L 1315.9 233.2 L 1321.8 251.6 L 1286.5 234.1 C 1285.5 233.3 1283.7 234.1 1282.8 235.6 C 1282.6 236.7 1282.8 238.5 1284.3 239.4 L 1324.3 259 L 1329.2 274.3 L 1315.7 267.5 C 1314.2 266.6 1312.9 267.5 1312 269 C 1311.2 270 1312 271.9 1312.9 272.7 L 1331.7 281.6 L 1337.1 297 L 1321.2 293.8 L 1309.8 276.6 C 1309 275.3 1307.3 274.9 1306 275.8 C 1304.8 276.1 1304.4 278.3 1305.2 279.7 L 1313.5 292.2 L 1297.6 289 L 1273.3 251.4 C 1272.4 250.1 1270.8 249.7 1269.4 250.6 C 1268.1 251.5 1267.8 253.1 1268.7 254.5 L 1289.9 287.4 L 1271.3 283.6 L 1261.7 269 C 1260.8 267.7 1259.1 267.4 1257.8 268.2 C 1256.5 269.1 1256.2 270.8 1257 272.1 L 1263 281.9 L 1249.3 279.1 C 1247.7 278.7 1246.4 279.6 1246 281.3 C 1245.7 282.9 1246.6 284.2 1248.2 284.6 L 1261.9 287.4 L 1252.7 293.5 C 1251.3 294.4 1251 296 1251.9 297.3 S 1254.4 299 1255.7 298.1 L 1269.6 288.9 L 1288.8 292.9 L 1256.4 314.3 C 1255.1 315.1 1254.8 316.8 1255.6 318.1 C 1256.5 319.4 1258.2 319.8 1259.5 318.9 L 1296.5 294.4 L 1312.4 297.7 L 1299.8 306 C 1298.5 306.9 1298.2 308.5 1299.1 309.8 C 1299.9 311.1 1301.6 311.5 1302.9 310.6 L 1320.1 299.3 L 1335.4 302.4 L 1325.1 314 L 1304.2 315.5 C 1303 315.8 1301.5 317.2 1301.9 318.4 C 1302.1 320.2 1303.1 320.9 1304.7 321.3 L 1319.8 320.4 L 1309.4 331.9 L 1264.8 334.8 C 1263 335 1262.3 336 1261.9 337.7 C 1262.1 339.4 1263.7 340.3 1264.8 340.5 L 1304.1 338.3 L 1290.8 352.7 L 1274 353.9 C 1272.4 353.5 1271.5 355.1 1271.2 356.7 C 1271.5 357.9 1272.9 359.4 1274.7 359.1 L 1285.7 358.5 L 1276.6 369.3 C 1275.3 370.1 1275.5 371.9 1276.9 373.3 C 1277.9 374.1 1279.7 373.9 1280.4 372.9 L 1290 362.3 L 1290.5 373.8 C 1290.7 375.6 1292.3 376.5 1293.5 376.1 C 1295.1 376.5 1295.9 375.5 1296.1 374.4 C 1296.2 373.8 1296.2 373.8 1296.4 373.3 L 1295.2 356.5 L 1308.5 342 L 1310.8 380.8 C 1310.5 382.5 1312 383.4 1313.7 383.7 C 1314.9 383.4 1315.6 382.4 1315.9 381.3 C 1316 380.7 1316 380.7 1316 380.7 L 1313.8 335.7 L 1324.1 324.1 L 1325.1 339.2 C 1325.3 340.9 1326.3 341.7 1327.9 342 C 1329.1 341.7 1330.4 340.8 1330.7 339.7 C 1330.8 339.2 1330.8 339.2 1330.9 338.6 L 1329.4 317.8 L 1339.8 306.2 L 1344.8 320.9 L 1335.8 339.6 C 1334.9 341.2 1335.7 343 1336.7 343.8 C 1338.3 344.2 1340.1 343.9 1340.4 342.3 L 1347.2 328.8 L 1352.7 343.7 L 1332.4 384.1 C 1331.7 385.1 1332.4 387 1333.4 387.7 C 1335.1 388.1 1336.8 387.9 1337.7 386.3 L 1355.1 351.6 L 1361.1 370 L 1353.4 385 C 1352.5 386.5 1353.3 388.4 1354.9 388.7 C 1355.9 389.5 1357.7 389.3 1358.6 387.7 L 1363.6 377.3 L 1368.2 390.9 C 1368.5 392.1 1370.1 392.9 1371.8 392.7 C 1372.5 392.3 1373.3 391.3 1373.5 390.2 C 1373.5 390.2 1373.6 389.7 1373.7 389.1 L 1369.1 375.6 L 1379.5 380.6 C 1380.4 381.3 1382.3 380.6 1383.1 379.6 C 1383.2 379.1 1383.2 379.1 1383.2 379.1 C 1383.5 377.4 1382.7 376.1 1381.6 375.9 L 1366.6 368.2 L 1360 349.7 L 1395.3 367.2 C 1397 367.6 1398.2 367.3 1399.1 365.7 C 1399.1 365.7 1399.2 365.2 1399.2 365.2 C 1399.4 364.1 1399.1 362.9 1397.6 362 L 1357.7 341.8 L 1352.7 327.1 L 1366.2 333.8 C 1367.8 334.2 1369.6 334 1369.9 332.3 C 1370.4 332.4 1370.6 331.9 1370.6 331.9 C 1370.8 330.8 1369.9 329.5 1368.9 328.7 L 1350.2 319.7 L 1345.3 304.4 L 1360.7 307.6 L 1372 324.8 C 1372.9 326.1 1375.1 326.5 1376.4 325.7 C 1377.2 324.7 1377.5 323 1377.2 321.8 L 1368.4 309.1 L 1384.3 312.4 L 1408.7 349.4 C 1409.6 350.7 1411.2 351.1 1412.5 350.2 C 1413.9 349.3 1414.2 347.7 1413.3 346.3 L 1391.9 314 L 1411.1 317.9 L 1420.3 331.8 C 1421.2 333.1 1422.8 333.4 1424.2 332.6 S 1425.8 330 1424.9 328.7 L 1418.8 319.5 L 1432.5 322.3 C 1434.2 322.6 1435.5 321.7 1435.8 320.1 C 1436.2 318.4 1435.3 317.1 1433.7 316.8 L 1420 314 L 1429.3 307.3 C 1430 306.9 1430.6 306.4 1430.7 305.9 C 1430.9 305.4 1430.5 304.1 1430.1 303.5 C 1429.2 302.2 1427.6 301.8 1426.3 302.7 L 1412.3 312.4 L 1393.1 308.5 L 1425.6 286.5 C 1426.2 286.1 1426.9 285.7 1427 285.1 C 1427.1 284.6 1426.8 283.4 1426.3 282.7 C 1425.5 281.4 1423.8 281 1422.5 281.9 L 1385.4 306.9 L 1369.5 303.7 L 1382.6 295.5 C 1383.2 295 1383.5 293.9 1383.6 293.4 C 1383.7 292.8 1383.8 292.3 1383.4 291.6 C 1382.5 290.3 1380.3 289.9 1379.5 290.8 L 1361.8 302.1 L 1346.4 298.9 L 1356.9 286.8 L 1377.7 285.9 C 1378.9 285.6 1380.2 284.7 1380.4 283.6 C 1380.5 283.1 1380.5 283.1 1380 282.9 C 1380.3 281.3 1378.9 279.9 1377.2 280.1 L 1362.1 281 L 1372.6 268.9 L 1417.6 266.6 C 1418.8 266.3 1419.6 265.3 1419.8 264.2 C 1420 263.7 1420 263.7 1420 263.7 C 1419.7 261.9 1418.9 260.6 1417.1 260.8 L 1377.8 263.1 L 1391 248.6 L 1407.8 247.5 C 1409.6 247.3 1410.4 246.3 1410.6 245.2 C 1410.6 245.2 1410.7 244.6 1410.7 244.6 C 1410.5 242.9 1409 242 1407.9 241.8 L 1396.2 242.8 L 1405.8 232.2 C 1405.9 231.7 1406 231.1 1406.1 230.6 C 1406.3 230 1405.9 228.8 1405.5 228.1 C 1404 227.3 1402.3 226.9 1401.4 228.5 L 1391.8 239.1 L 1391.3 227.5 C 1391.1 225.8 1389.6 224.9 1388.5 224.7 C 1386.7 224.9 1385.8 226.4 1385.5 228.1 L 1386.6 244.9 L 1374 259.4 L 1371.6 220.6 C 1371.4 218.9 1370 217.4 1368.8 217.8 C 1367 218 1365.7 218.9 1365.9 220.6 Z" stroke-linecap="round"/>
</g>
		<g transform="matrix(1 0 0 1 -37.5023 243.6687)">
<path style="stroke: none; stroke-width: 1; stroke-dasharray: none; stroke-linecap: butt; stroke-dashoffset: 0; stroke-linejoin: miter; stroke-miterlimit: 4; is-custom-font: none; font-file-url: none; fill: rgb(51,121,194); fill-opacity: 0.58; fill-rule: nonzero; opacity: 0.46;" transform=" translate(-682.4976, -523.6687)" d="M 783.7 514.5 L 766.2 515.4 L 771.1 504.7 C 771.8 503.6 771.3 501.9 769.9 500.8 C 768.3 500.5 766.6 501 766 502.1 L 759.2 516 L 742.9 516.8 L 757 488.5 C 757.8 486.7 757.3 485 755.8 484.7 C 754.4 483.6 752.7 484 751.9 485.9 L 736.3 517.1 L 721.6 518.2 L 702.6 489.8 L 708.2 477.9 L 745.4 476.1 C 745.8 475.8 746.3 475.5 746.8 475.2 C 747.2 474.9 747.9 473.8 748 473 C 748 471 746.6 469.9 744.9 470.4 L 711 472 L 718.3 457.8 L 735.6 456.4 C 735.9 456.8 736.4 456.5 736.8 456.2 C 737.8 455.6 738.4 454.5 738.2 453.3 C 738.1 452 736.7 450.9 735.1 450.6 L 721.1 451.9 L 730 433.9 C 730.6 432.8 730.2 431.1 728.8 430 C 727.2 429.7 725.5 430.1 724.9 431.2 L 716.6 448.1 L 710.1 438.3 C 709.2 436.9 707.2 436.9 706.2 437.6 C 704.8 438.5 704.1 440.4 705 441.8 L 713.4 454.3 L 706.1 468.6 L 688.7 442.5 C 687.8 441.1 686.2 440.8 684.8 441.7 C 683.4 442.7 683.1 444.2 684 445.6 L 703.3 474.5 L 697.5 487.1 L 663.2 489.1 L 656.1 478.4 L 671.8 446.4 C 672.8 445 672.1 442.8 670.5 442.5 C 669.1 441.4 667.7 442.4 666.6 443.8 L 652.3 472.8 L 643.3 459.3 L 650.6 445 C 651.3 443.9 650.5 441.7 649.4 441.1 S 646.1 441.3 645 442.7 L 639.6 453.7 L 628.7 437.4 C 627.8 436 625.8 436 624.4 436.9 C 623.5 437.5 622.7 439.4 623.6 440.8 L 634.5 457.1 L 621.7 458.2 C 620.5 458.3 619.1 459.3 619.1 461.3 C 619.3 462.5 621 464.1 622.2 463.9 L 638.2 462.7 L 647.2 476.2 L 614.9 478.2 C 613.2 478.7 611.8 479.6 611.8 481.6 C 611.9 482.9 613.7 484.4 614.9 484.3 L 650.9 481.8 L 658.1 492.5 L 643 523.4 L 629.2 523.9 L 609.9 495 C 609 493.6 607.4 493.3 606 494.2 C 604.6 495.1 603.9 497 604.8 498.4 L 622.2 524.5 L 606.2 525.7 L 597.8 513.1 C 596.9 511.7 595.3 511.4 593.9 512.4 C 592.5 513.3 592.2 514.9 593.1 516.3 L 599.7 526 L 580.9 527.1 C 579.6 527.3 578.1 529 578.2 530.2 C 578.7 531.9 579.6 533.3 581.3 532.9 L 600.9 531.9 L 594.8 544.1 C 594.5 545.6 595 547.3 596.1 547.9 C 597.2 548.6 598.4 548.4 599.3 547.8 C 599.3 547.8 599.8 547.5 600 546.7 L 607.9 531.3 L 623.9 530.1 L 609.3 560.7 C 608.2 562.1 608.6 563.8 610.5 564.6 C 611.3 564.7 612.1 564.9 613 564.3 C 613.5 563.9 613.9 563.6 614.4 563.3 L 630.4 529.8 L 643.4 529.2 L 662.4 557.6 L 655.7 570.8 L 620.9 573.1 C 618.9 573.1 617.8 574.5 618.3 576.2 C 618 577.8 619.3 578.9 621.4 578.9 L 652.9 576.7 L 645.9 591.5 L 630.4 592.4 C 629.1 592.5 628 593.9 627.7 595.5 C 628.2 597.2 629.1 598.6 630.8 598.1 L 642.6 597.7 L 635 613.5 C 633.9 614.9 634.9 616.3 636.3 617.4 C 637 617.5 638.3 617.4 639.2 616.8 C 639.2 616.8 639.7 616.5 640.1 616.1 L 648.4 599.2 L 656.1 610.9 C 656.8 611.8 658.6 612.6 660 611.7 C 661.4 610.7 661.4 608.7 660.8 607.8 L 651.2 593.3 L 658.2 578.6 L 677.1 607 C 678 608.4 680.1 608.4 681.5 607.5 S 683.2 605 682.2 603.6 L 661.4 572.4 L 667.5 560.2 L 701.8 558.2 L 709.9 570.4 L 693.7 602.7 C 693.4 604.2 693.9 605.9 695.3 607 C 696.1 607.2 697.3 607 698.2 606.4 C 698.7 606.1 699.2 605.8 699.3 605 L 713.6 576 L 722.6 589.5 L 715.6 604.2 C 715 605.3 715.5 607 716.9 608.1 C 718.4 608.4 720.1 608 720.8 606.9 L 726.4 595.1 L 736.3 610 C 736.9 610.9 739.2 611.4 740.2 610.8 C 741.6 609.8 742 607.5 741.4 606.6 L 731.5 591.7 L 744.1 591.3 C 744.5 591 745 590.7 745.5 590.4 C 746.4 589.8 747 588.7 747.2 587.9 C 746.7 586.2 745.3 585.1 743.8 584.8 L 727.8 586.1 L 718.8 572.5 L 751.1 570.5 C 753.1 570.5 754.2 569.1 754 567.9 C 754 565.9 752.6 564.8 751.1 564.5 L 715 566.9 L 707 554.8 L 722 523.9 L 735.6 523 L 756.4 554.2 C 757.3 555.6 758.8 555.9 760.2 555 C 761.6 554.1 761.9 552.5 761 551.1 L 742.1 522.7 L 758.4 521.9 L 768 536.4 C 768.6 537.3 771 537.8 772.4 536.8 C 773.8 535.9 773.8 533.9 773.1 533 L 765.4 521.3 L 784.2 520.2 C 784.6 519.9 784.6 519.9 785.1 519.6 C 786 519 786.7 517.9 786.8 517.1 C 786.3 515.4 785 514.3 783.7 514.5 Z M 703.2 549.2 L 701.4 552.5 L 698.1 552.7 L 670.3 554.3 L 667 554.5 L 665.2 551.7 L 650 528.9 L 648.1 526.1 L 649.5 523.1 L 661.8 498.1 L 663.2 495.2 L 666.9 494.7 L 694.3 493.3 L 698 492.9 L 699.8 495.7 L 715.1 518.5 L 716.9 521.3 L 715.1 524.5 L 703.2 549.2 Z" stroke-linecap="round"/>
</g>
		<g transform="matrix(1 0 0 1 604.6859 239.3474)">
<path style="stroke: none; stroke-width: 1; stroke-dasharray: none; stroke-linecap: butt; stroke-dashoffset: 0; stroke-linejoin: miter; stroke-miterlimit: 4; is-custom-font: none; font-file-url: none; fill: rgb(51,121,194); fill-opacity: 0.58; fill-rule: nonzero; opacity: 0.46;" transform=" translate(-1324.6858, -519.3475)" d="M 1356.6 466 L 1350.6 498.5 L 1343.3 503.9 L 1324.8 495.3 L 1323.8 486 L 1345.4 460.7 C 1345.5 460.4 1345.5 460.4 1345.7 460 C 1346 459.3 1346 458.4 1345.1 457.5 C 1344 457 1343.1 457 1342.2 457.9 L 1323.5 480.1 L 1322.2 465.8 L 1330.4 455.9 C 1330.4 455.9 1330.5 455.6 1330.5 455.6 C 1330.9 454.8 1330.9 454 1329.9 453.1 C 1329.4 452.4 1328 452.6 1327.1 453.5 L 1321.5 459.7 L 1320.7 449.2 C 1320.7 448.3 1319.8 447.4 1318.5 447.3 S 1316.6 448.6 1316.4 449.9 L 1317.4 460 L 1311 454.8 C 1310.1 454 1308.7 454.2 1307.8 455.1 C 1307.5 455.8 1307.3 457.1 1308.2 457.9 L 1318.1 466.1 L 1319.2 480.7 L 1297.1 462 C 1296.2 461.1 1294.7 461.3 1294 461.9 C 1293.5 463 1293.4 464.2 1294.3 465.1 L 1319.7 486.3 L 1320.5 495.9 L 1304.2 507.3 L 1295.5 503.2 L 1283.9 472.2 C 1283.5 471.1 1282.4 470.6 1281.4 471 S 1279.8 472.5 1280.2 473.5 L 1290.4 500.8 L 1277 494.5 L 1272.7 482.8 C 1272.4 481.8 1271.3 481.3 1269.8 481.5 S 1268.3 483 1268.7 484 L 1271.9 492.2 L 1262.1 487.6 C 1261 487.1 1259.8 487.8 1259.3 488.9 C 1258.8 490 1259.2 491.1 1260.3 491.6 L 1270 496.2 L 1262.1 499.1 C 1260.6 499.3 1260.1 500.4 1260.9 501.6 C 1261.3 502.7 1262.4 503.2 1263.4 502.8 L 1275.1 498.5 L 1288.5 504.8 L 1261 514.5 C 1260 514.9 1259.3 516.3 1259.7 517.4 S 1261.2 518.9 1262.2 518.6 L 1293.6 507.2 L 1302.3 511.2 L 1303.9 531.4 L 1296.2 536.6 L 1263.6 530.7 C 1262.4 530.5 1261.5 531.5 1261 532.5 C 1260.8 533.8 1261.7 534.7 1262.8 535.2 L 1291.4 540.2 L 1279.6 548.3 L 1267.1 546 C 1265.8 545.8 1264.9 546.8 1264.4 547.8 C 1264.4 548.7 1265.2 550 1266.4 550.1 L 1274.5 551.7 L 1265.9 557.8 C 1265.2 558.4 1265.1 559.6 1265.5 560.7 C 1266.4 561.6 1267.6 561.7 1268.3 561.2 L 1277 555 L 1275.6 563.7 C 1275.6 564.6 1276.3 565.8 1277.2 565.8 C 1278.3 566.3 1279 565.7 1279.5 564.6 C 1279.5 564.6 1279.7 564.3 1279.7 564.3 L 1282.1 551.7 L 1293.8 543.5 L 1288.9 572.1 C 1288.7 573.3 1289.1 574.4 1290.3 574.5 C 1291.6 574.7 1292.3 574.1 1292.6 573.4 C 1292.8 573 1292.8 573 1292.8 573 L 1298.6 540 L 1306.3 534.8 L 1324.8 543.4 L 1325.4 552.5 L 1304 578.3 C 1303.3 578.9 1303.6 580.3 1304.1 581 C 1305 581.9 1306.5 581.6 1307.3 580.7 L 1326.1 558.6 L 1327.3 572.9 L 1319.2 582.7 C 1318.3 583.7 1318.2 584.9 1319.3 585.4 C 1320.2 586.3 1321.6 586.1 1322.3 585.5 L 1327.7 578.8 L 1328.5 589.3 C 1328.9 590.4 1329.8 591.2 1331 591.4 C 1331.6 591.2 1332.3 590.6 1332.6 589.9 C 1332.8 589.5 1332.8 589.5 1332.6 589 L 1331.8 578.5 L 1338.5 583.8 C 1339.5 584.7 1340.5 584.3 1341.2 583.8 C 1341.4 583.4 1341.4 583.4 1341.6 583.1 C 1341.9 582.3 1341.9 581.4 1341.3 580.7 L 1331.5 572.6 L 1330.2 558.3 L 1352.3 577 C 1353.4 577.6 1354.7 577.7 1355.2 576.6 C 1355.7 576.4 1355.7 576.4 1355.9 576.1 C 1356.2 575.3 1355.8 574.3 1355.3 573.6 L 1329.5 552.2 L 1328.9 543.1 L 1345.4 531.4 L 1353.7 535.3 L 1365.1 566.7 C 1365.5 567.8 1367 568.4 1368 568 S 1369.8 566.2 1369.4 565.1 L 1359.2 537.9 L 1372.2 544 L 1376.8 555.8 C 1377.2 556.9 1378.3 557.4 1379.4 557 C 1380.4 556.6 1380.9 555.5 1380.5 554.5 L 1377.7 546.5 L 1387.4 551.1 C 1388.2 551.4 1389.6 551.2 1390.1 550.1 C 1390.6 549 1390 547.4 1389.3 547.1 L 1379.5 542.5 L 1387.5 539.6 C 1388 539.4 1388.6 539.2 1388.7 538.9 C 1389.1 538.1 1388.9 537.6 1388.7 537.1 C 1388.3 536 1387.2 535.5 1386.1 535.9 L 1374.1 540 L 1361 533.9 L 1388.5 524.2 C 1389.1 524 1389.2 523.6 1389.6 522.9 C 1389.7 522.6 1389.9 522.2 1389.7 521.7 C 1389.3 520.6 1387.9 519.9 1386.8 520.3 L 1355.6 531.3 L 1347.3 527.4 L 1345.5 507.6 L 1353 501.9 L 1386 508 C 1386.9 508 1387.9 507.6 1388.3 506.9 C 1388.4 506.5 1388.4 506.5 1388.1 506.3 C 1388.6 505.2 1387.8 504 1386.6 503.9 L 1358 498.9 L 1369.9 490.3 L 1382.5 492.7 C 1383.4 492.7 1384.1 492.1 1384.4 491.4 C 1384.4 491.4 1384.6 491 1384.6 491 C 1385.1 489.9 1384.4 488.7 1383.1 488.6 L 1374.5 487.2 L 1383.1 481 C 1383.6 480.8 1383.8 480.5 1384 480.1 C 1384.3 479.4 1384.3 478.5 1383.9 478.3 C 1383.2 477.1 1381.9 477 1380.9 477.3 L 1372.3 483.5 L 1373.8 475.4 C 1374 474.1 1373.2 472.9 1372 472.7 C 1371.1 472.8 1369.8 473.5 1369.9 474.4 L 1367.5 487 L 1355.7 495.2 L 1360.7 466.6 C 1360.9 465.3 1359.9 464.5 1358.9 464 C 1358 464 1356.7 464.7 1356.6 466 Z M 1325.1 500.3 L 1339.2 506.9 L 1341.4 507.9 L 1341.6 510.2 L 1342.9 525.4 L 1343 528.1 L 1341.1 529.4 L 1328.6 538.1 L 1326.7 539.4 L 1324.5 538.4 L 1310.3 531.8 L 1308.2 530.8 L 1307.9 528.5 L 1306.6 513.3 L 1306.4 511 L 1308.5 509.3 L 1321 500.6 L 1322.9 499.3 L 1325.1 500.3 Z" stroke-linecap="round"/>
</g>
		<g transform="matrix(1 0 0 1 -514.4628 -163.8027)">
<path style="stroke: none; stroke-width: 1; stroke-dasharray: none; stroke-linecap: butt; stroke-dashoffset: 0; stroke-linejoin: miter; stroke-miterlimit: 4; is-custom-font: none; font-file-url: none; fill: rgb(51,121,194); fill-opacity: 0.58; fill-rule: nonzero; opacity: 0.46;" transform=" translate(-205.5372, -116.1973)" d="M 227.4 71.6 L 224.8 97.9 L 219.3 102.7 L 204 97 L 202.6 89.7 L 218.1 68.1 C 218.2 67.8 218.2 67.8 218.3 67.5 C 218.5 66.9 218.4 66.2 217.6 65.6 C 216.7 65.3 216 65.3 215.4 66.1 L 201.9 85 L 200 73.7 L 205.8 65.3 C 205.8 65.3 205.9 65 205.9 65 C 206.1 64.4 206.1 63.7 205.3 63.1 C 204.8 62.5 203.7 62.8 203 63.6 L 199 68.9 L 197.7 60.6 C 197.6 59.9 196.8 59.3 195.8 59.2 S 194.3 60.4 194.3 61.4 L 195.8 69.4 L 190.3 65.7 C 189.5 65.1 188.4 65.4 187.8 66.2 C 187.5 66.8 187.5 67.8 188.3 68.4 L 196.7 74.2 L 198.6 85.8 L 179.7 72.4 C 178.9 71.7 177.7 72 177.2 72.5 C 176.9 73.4 176.9 74.4 177.7 75 L 199.3 90.2 L 200.6 97.8 L 188.3 108 L 181.1 105.3 L 169.9 81.4 C 169.5 80.5 168.6 80.2 167.8 80.6 S 166.6 81.9 167 82.7 L 176.9 103.8 L 165.8 99.7 L 161.7 90.6 C 161.3 89.8 160.4 89.5 159.3 89.7 S 158.1 91 158.5 91.8 L 161.6 98.1 L 153.5 95.1 C 152.6 94.8 151.7 95.5 151.4 96.4 C 151 97.3 151.4 98.1 152.3 98.4 L 160.4 101.4 L 154.2 104.3 C 153.1 104.5 152.8 105.4 153.5 106.4 C 153.8 107.2 154.7 107.5 155.6 107.1 L 164.6 103 L 175.7 107.1 L 154.5 116.6 C 153.6 117 153.2 118.2 153.6 119 S 154.8 120.2 155.7 119.8 L 179.9 108.6 L 187.1 111.3 L 189.7 127.3 L 183.9 131.9 L 157.6 129.4 C 156.6 129.3 155.9 130.1 155.6 131 C 155.6 132 156.4 132.7 157.3 133 L 180.4 135.1 L 171.5 142.4 L 161.4 141.3 C 160.3 141.3 159.7 142.1 159.4 143 C 159.5 143.7 160.1 144.6 161.1 144.7 L 167.7 145.4 L 161.3 150.9 C 160.7 151.3 160.7 152.4 161.1 153.2 C 161.9 153.8 162.9 153.8 163.4 153.4 L 169.9 147.9 L 169.3 154.9 C 169.4 155.6 170.1 156.5 170.8 156.4 C 171.7 156.8 172.2 156.3 172.5 155.4 C 172.5 155.4 172.7 155.1 172.7 155.1 L 173.7 144.9 L 182.5 137.6 L 180.5 160.7 C 180.4 161.7 180.8 162.5 181.8 162.5 C 182.8 162.6 183.4 162.1 183.6 161.5 C 183.7 161.2 183.7 161.2 183.7 161.2 L 186.1 134.4 L 191.9 129.8 L 207.2 135.4 L 208.3 142.6 L 193 164.6 C 192.5 165.1 192.8 166.2 193.2 166.8 C 194 167.4 195.2 167.1 195.8 166.3 L 209.3 147.4 L 211.2 158.7 L 205.4 167.2 C 204.7 167.9 204.7 169 205.6 169.3 C 206.4 169.9 207.5 169.6 208 169.2 L 211.9 163.4 L 213.2 171.8 C 213.6 172.6 214.4 173.2 215.4 173.2 C 215.8 173.1 216.3 172.6 216.6 172 C 216.7 171.7 216.7 171.7 216.5 171.3 L 215.1 162.9 L 220.9 166.7 C 221.7 167.4 222.5 167 223 166.5 C 223.1 166.2 223.1 166.2 223.2 165.9 C 223.5 165.3 223.4 164.6 222.9 164.1 L 214.5 158.2 L 212.5 146.9 L 231.4 160.4 C 232.3 160.7 233.3 160.8 233.7 159.9 C 234.1 159.7 234.1 159.7 234.2 159.4 C 234.4 158.8 234 157.9 233.5 157.4 L 211.5 142.1 L 210.5 134.9 L 222.8 124.5 L 229.7 127 L 240.9 151.3 C 241.3 152.1 242.5 152.5 243.3 152.2 S 244.6 150.6 244.2 149.8 L 234.3 128.7 L 245.1 132.7 L 249.5 141.8 C 249.9 142.7 250.8 143 251.6 142.6 C 252.4 142.2 252.8 141.3 252.4 140.5 L 249.6 134.3 L 257.7 137.3 C 258.3 137.6 259.4 137.3 259.7 136.4 C 260.1 135.5 259.5 134.3 258.9 134 L 250.8 131 L 256.9 128.2 C 257.4 128 257.8 127.8 257.9 127.5 C 258.1 126.9 257.9 126.5 257.7 126.1 C 257.3 125.3 256.4 124.9 255.6 125.3 L 246.3 129.4 L 235.5 125.4 L 256.7 115.8 C 257.1 115.7 257.3 115.4 257.5 114.8 C 257.6 114.5 257.7 114.2 257.5 113.7 C 257.1 112.9 255.9 112.5 255.1 112.9 L 231 123.7 L 224.1 121.2 L 221.3 105.5 L 227 100.4 L 253.6 103.1 C 254.3 103 255.1 102.6 255.4 102 C 255.5 101.7 255.5 101.7 255.2 101.6 C 255.5 100.7 254.8 99.8 253.8 99.8 L 230.7 97.7 L 239.6 90.1 L 249.8 91.1 C 250.5 91 251.1 90.6 251.3 90 C 251.3 90 251.4 89.7 251.4 89.7 C 251.7 88.8 251.1 87.8 250 87.8 L 243.1 87.3 L 249.5 81.8 C 249.9 81.6 250 81.3 250.2 81 C 250.4 80.4 250.3 79.7 250 79.6 C 249.3 78.7 248.3 78.6 247.5 79 L 241 84.5 L 241.7 77.9 C 241.8 76.9 241.1 76 240.1 75.9 C 239.4 76 238.4 76.7 238.5 77.4 L 237.5 87.6 L 228.7 94.9 L 230.7 71.8 C 230.7 70.8 230 70.1 229.1 69.8 C 228.3 69.9 227.4 70.6 227.4 71.6 Z M 204.6 101 L 216.3 105.3 L 218.1 106 L 218.4 107.8 L 220.5 119.8 L 220.7 122 L 219.2 123.1 L 209.9 130.9 L 208.4 132.1 L 206.6 131.5 L 194.9 127.1 L 193.1 126.5 L 192.8 124.6 L 190.7 112.6 L 190.4 110.8 L 191.9 109.3 L 201.3 101.5 L 202.8 100.3 L 204.6 101 Z" stroke-linecap="round"/>
</g>
</g>
</g>
</svg>