<svg xmlns="http://www.w3.org/2000/svg" xmlns:xlink="http://www.w3.org/1999/xlink" viewBox="0 0 1080 1080" width="1080" height="1080" preserveAspectRatio="xMidYMid meet" style="width: 100%; height: 100%; transform: translate3d(0px, 0px, 0px); content-visibility: visible;"><defs><clipPath id="__lottie_element_1043"><rect width="1080" height="1080" x="0" y="0"></rect></clipPath></defs><g clip-path="url(#__lottie_element_1043)"><g style="display: block;" transform="matrix(1.0000070333480835,0,0,1.0000070333480835,543.9991455078125,548.008544921875)" opacity="1"><g opacity="1" transform="matrix(1,0,0,1,0,0)"><path stroke-linecap="butt" stroke-linejoin="miter" fill-opacity="0" stroke-miterlimit="4" stroke="rgb(29,58,64)" stroke-opacity="1" stroke-width="5" d=" M0,6 C0,6 4,330 4,330"></path></g></g><g style="display: block;" transform="matrix(1.4500000476837158,0,0,1.4500000476837158,684.1377563476562,426.7320861816406)" opacity="1"><g opacity="1" transform="matrix(1,0,0,1,0,0)"><path fill="rgb(29,58,64)" fill-opacity="1" d=" M-166,-86 C-216.7550048828125,-69.97200012207031 -211.53199768066406,-20.461999893188477 -196,11 C-176.5,50.5 -97,112.447998046875 -97,112.447998046875 C-97,112.447998046875 5.156000137329102,53.847999572753906 24.827999114990234,12.930999755859375 C39.90599822998047,-18.43000030517578 35.07099914550781,-71.51599884033203 -13,-88.06900024414062 C-71.12899780273438,-108.08599853515625 -93.89700317382812,-59.827999114990234 -93.89700317382812,-59.827999114990234 C-93.89700317382812,-59.827999114990234 -128,-98 -166,-86z"></path></g></g><g style="display: block;" transform="matrix(1.4500000476837158,0,0,1.4500000476837158,668.1370239257812,424.7325439453125)" opacity="1"><g opacity="1" transform="matrix(1,0,0,1,0,0)"><path fill="rgb(205,127,245)" fill-opacity="1" d=" M-166,-86 C-216.7550048828125,-69.97200012207031 -211.53199768066406,-20.461999893188477 -196,11 C-176.5,50.5 -87,109 -87,109 C-87,109 4,48 20,15 C37.36899948120117,-20.822999954223633 35.60300064086914,-71.08100128173828 -13,-86 C-63.08599853515625,-101.3740005493164 -87,-55 -87,-55 C-87,-55 -128,-98 -166,-86z"></path><path stroke-linecap="butt" stroke-linejoin="miter" fill-opacity="0" stroke-miterlimit="4" stroke="rgb(29,58,64)" stroke-opacity="1" stroke-width="3" d=" M-166,-86 C-216.7550048828125,-69.97200012207031 -211.53199768066406,-20.461999893188477 -196,11 C-176.5,50.5 -87,109 -87,109 C-87,109 4,48 20,15 C37.36899948120117,-20.822999954223633 35.60300064086914,-71.08100128173828 -13,-86 C-63.08599853515625,-101.3740005493164 -87,-55 -87,-55 C-87,-55 -128,-98 -166,-86z"></path></g></g><g style="display: block;" transform="matrix(0.00008376176992896944,0.000011739381079678424,-0.000011739381079678424,0.00008376176992896944,655.5374145507812,303.9561462402344)" opacity="1"><g opacity="1" transform="matrix(1,0,0,1,-430,96)"><path fill="rgb(255,255,255)" fill-opacity="1" d=" M2.2948657287213655e-15,-37.47800064086914 C-1.4717576503753662,-37.47800064086914 12.86439323425293,-12.86439323425293 12.86439323425293,-12.86439323425293 C12.86439323425293,-12.86439323425293 37.47800064086914,1.4717576503753662 37.47800064086914,0 C37.47800064086914,-1.4717576503753662 12.86439323425293,12.86439323425293 12.86439323425293,12.86439323425293 C12.86439323425293,12.86439323425293 -1.4717576503753662,37.47800064086914 2.2948657287213655e-15,37.47800064086914 C1.4717576503753662,37.47800064086914 -12.86439323425293,12.86439323425293 -12.86439323425293,12.86439323425293 C-12.86439323425293,12.86439323425293 -37.47800064086914,-1.4717576503753662 -37.47800064086914,4.589731457442731e-15 C-37.47800064086914,1.4717576503753662 -12.86439323425293,-12.86439323425293 -12.86439323425293,-12.86439323425293 C-12.86439323425293,-12.86439323425293 1.4717576503753662,-37.47800064086914 2.2948657287213655e-15,-37.47800064086914z"></path><path stroke-linecap="butt" stroke-linejoin="miter" fill-opacity="0" stroke-miterlimit="4" stroke="rgb(29,58,64)" stroke-opacity="1" stroke-width="5" d=" M2.2948657287213655e-15,-37.47800064086914 C-1.4717576503753662,-37.47800064086914 12.86439323425293,-12.86439323425293 12.86439323425293,-12.86439323425293 C12.86439323425293,-12.86439323425293 37.47800064086914,1.4717576503753662 37.47800064086914,0 C37.47800064086914,-1.4717576503753662 12.86439323425293,12.86439323425293 12.86439323425293,12.86439323425293 C12.86439323425293,12.86439323425293 -1.4717576503753662,37.47800064086914 2.2948657287213655e-15,37.47800064086914 C1.4717576503753662,37.47800064086914 -12.86439323425293,12.86439323425293 -12.86439323425293,12.86439323425293 C-12.86439323425293,12.86439323425293 -37.47800064086914,-1.4717576503753662 -37.47800064086914,4.589731457442731e-15 C-37.47800064086914,1.4717576503753662 -12.86439323425293,-12.86439323425293 -12.86439323425293,-12.86439323425293 C-12.86439323425293,-12.86439323425293 1.4717576503753662,-37.47800064086914 2.2948657287213655e-15,-37.47800064086914z"></path></g></g><g style="display: block;" transform="matrix(0.7931089997291565,0,0,0.7931089997291565,366.1500244140625,597.5580444335938)" opacity="1"><g opacity="1" transform="matrix(1,0,0,1,0,0)"><path stroke-linecap="butt" stroke-linejoin="miter" fill-opacity="0" stroke-miterlimit="4" stroke="rgb(29,58,64)" stroke-opacity="1" stroke-width="5" d=" M0,6 C0,6 4,330 4,330"></path></g></g><g style="display: block;" transform="matrix(1.149999976158142,0,0,1.149999976158142,474.4665832519531,501.373291015625)" opacity="1"><g opacity="1" transform="matrix(1,0,0,1,0,0)"><path fill="rgb(29,58,64)" fill-opacity="1" d=" M-166,-86 C-216.7550048828125,-69.97200012207031 -211.53199768066406,-20.461999893188477 -196,11 C-176.5,50.5 -97,112.447998046875 -97,112.447998046875 C-97,112.447998046875 5.156000137329102,53.847999572753906 24.827999114990234,12.930999755859375 C39.90599822998047,-18.43000030517578 35.07099914550781,-71.51599884033203 -13,-88.06900024414062 C-71.12899780273438,-108.08599853515625 -93.89700317382812,-59.827999114990234 -93.89700317382812,-59.827999114990234 C-93.89700317382812,-59.827999114990234 -128,-98 -166,-86z"></path></g></g><g style="display: block;" transform="matrix(1.149999976158142,0,0,1.149999976158142,461.7763366699219,499.7874450683594)" opacity="1"><g opacity="1" transform="matrix(1,0,0,1,0,0)"><path fill="rgb(87,191,160)" fill-opacity="1" d=" M-166,-86 C-216.7550048828125,-69.97200012207031 -211.53199768066406,-20.461999893188477 -196,11 C-176.5,50.5 -87,109 -87,109 C-87,109 4,48 20,15 C37.36899948120117,-20.822999954223633 35.60300064086914,-71.08100128173828 -13,-86 C-63.08599853515625,-101.3740005493164 -87,-55 -87,-55 C-87,-55 -128,-98 -166,-86z"></path><path stroke-linecap="butt" stroke-linejoin="miter" fill-opacity="0" stroke-miterlimit="4" stroke="rgb(29,58,64)" stroke-opacity="1" stroke-width="3" d=" M-166,-86 C-216.7550048828125,-69.97200012207031 -211.53199768066406,-20.461999893188477 -196,11 C-176.5,50.5 -87,109 -87,109 C-87,109 4,48 20,15 C37.36899948120117,-20.822999954223633 35.60300064086914,-71.08100128173828 -13,-86 C-63.08599853515625,-101.3740005493164 -87,-55 -87,-55 C-87,-55 -128,-98 -166,-86z"></path></g></g><g style="display: block;" transform="matrix(0.022533850744366646,0.00005685726864612661,-0.00005685726864612661,0.022533850744366646,237.19451904296875,485.10675048828125)" opacity="1"><g opacity="1" transform="matrix(1,0,0,1,-430,96)"><path fill="rgb(255,255,255)" fill-opacity="1" d=" M2.2948657287213655e-15,-37.47800064086914 C-1.4717576503753662,-37.47800064086914 12.86439323425293,-12.86439323425293 12.86439323425293,-12.86439323425293 C12.86439323425293,-12.86439323425293 37.47800064086914,1.4717576503753662 37.47800064086914,0 C37.47800064086914,-1.4717576503753662 12.86439323425293,12.86439323425293 12.86439323425293,12.86439323425293 C12.86439323425293,12.86439323425293 -1.4717576503753662,37.47800064086914 2.2948657287213655e-15,37.47800064086914 C1.4717576503753662,37.47800064086914 -12.86439323425293,12.86439323425293 -12.86439323425293,12.86439323425293 C-12.86439323425293,12.86439323425293 -37.47800064086914,-1.4717576503753662 -37.47800064086914,4.589731457442731e-15 C-37.47800064086914,1.4717576503753662 -12.86439323425293,-12.86439323425293 -12.86439323425293,-12.86439323425293 C-12.86439323425293,-12.86439323425293 1.4717576503753662,-37.47800064086914 2.2948657287213655e-15,-37.47800064086914z"></path><path stroke-linecap="butt" stroke-linejoin="miter" fill-opacity="0" stroke-miterlimit="4" stroke="rgb(29,58,64)" stroke-opacity="1" stroke-width="5" d=" M2.2948657287213655e-15,-37.47800064086914 C-1.4717576503753662,-37.47800064086914 12.86439323425293,-12.86439323425293 12.86439323425293,-12.86439323425293 C12.86439323425293,-12.86439323425293 37.47800064086914,1.4717576503753662 37.47800064086914,0 C37.47800064086914,-1.4717576503753662 12.86439323425293,12.86439323425293 12.86439323425293,12.86439323425293 C12.86439323425293,12.86439323425293 -1.4717576503753662,37.47800064086914 2.2948657287213655e-15,37.47800064086914 C1.4717576503753662,37.47800064086914 -12.86439323425293,12.86439323425293 -12.86439323425293,12.86439323425293 C-12.86439323425293,12.86439323425293 -37.47800064086914,-1.4717576503753662 -37.47800064086914,4.589731457442731e-15 C-37.47800064086914,1.4717576503753662 -12.86439323425293,-12.86439323425293 -12.86439323425293,-12.86439323425293 C-12.86439323425293,-12.86439323425293 1.4717576503753662,-37.47800064086914 2.2948657287213655e-15,-37.47800064086914z"></path></g></g><g style="display: block;" transform="matrix(0.5379347801208496,0,0,0.5379347801208496,692.3358154296875,600.7918090820312)" opacity="1"><g opacity="1" transform="matrix(1,0,0,1,0,0)"><path stroke-linecap="butt" stroke-linejoin="miter" fill-opacity="0" stroke-miterlimit="4" stroke="rgb(29,58,64)" stroke-opacity="1" stroke-width="5" d=" M0,6 C0,6 4,330 4,330"></path></g></g><g style="display: block;" transform="matrix(0.7799999713897705,0,0,0.7799999713897705,765.8721313476562,535.553466796875)" opacity="1"><g opacity="1" transform="matrix(1,0,0,1,0,0)"><path fill="rgb(29,58,64)" fill-opacity="1" d=" M-166,-86 C-216.7550048828125,-69.97200012207031 -211.53199768066406,-20.461999893188477 -196,11 C-176.5,50.5 -97,112.447998046875 -97,112.447998046875 C-97,112.447998046875 5.156000137329102,53.847999572753906 24.827999114990234,12.930999755859375 C39.90599822998047,-18.43000030517578 35.07099914550781,-71.51599884033203 -13,-88.06900024414062 C-71.12899780273438,-108.08599853515625 -93.89700317382812,-59.827999114990234 -93.89700317382812,-59.827999114990234 C-93.89700317382812,-59.827999114990234 -128,-98 -166,-86z"></path></g></g><g style="display: block;" transform="matrix(0.7799999713897705,0,0,0.7799999713897705,757.2648315429688,534.4778442382812)" opacity="1"><g opacity="1" transform="matrix(1,0,0,1,0,0)"><path fill="rgb(255,255,255)" fill-opacity="1" d=" M-166,-86 C-216.7550048828125,-69.97200012207031 -211.53199768066406,-20.461999893188477 -196,11 C-176.5,50.5 -87,109 -87,109 C-87,109 4,48 20,15 C37.36899948120117,-20.822999954223633 35.60300064086914,-71.08100128173828 -13,-86 C-63.08599853515625,-101.3740005493164 -87,-55 -87,-55 C-87,-55 -128,-98 -166,-86z"></path><path stroke-linecap="butt" stroke-linejoin="miter" fill-opacity="0" stroke-miterlimit="4" stroke="rgb(29,58,64)" stroke-opacity="1" stroke-width="3" d=" M-166,-86 C-216.7550048828125,-69.97200012207031 -211.53199768066406,-20.461999893188477 -196,11 C-176.5,50.5 -87,109 -87,109 C-87,109 4,48 20,15 C37.36899948120117,-20.822999954223633 35.60300064086914,-71.08100128173828 -13,-86 C-63.08599853515625,-101.3740005493164 -87,-55 -87,-55 C-87,-55 -128,-98 -166,-86z"></path></g></g><g style="display: block;" transform="matrix(0.06584611535072327,-0.07881128042936325,0.07881128042936325,0.06584611535072327,657.997314453125,539.1177368164062)" opacity="1"><g opacity="1" transform="matrix(1,0,0,1,-430,96)"><path fill="rgb(255,255,255)" fill-opacity="1" d=" M2.2948657287213655e-15,-37.47800064086914 C-1.4717576503753662,-37.47800064086914 12.86439323425293,-12.86439323425293 12.86439323425293,-12.86439323425293 C12.86439323425293,-12.86439323425293 37.47800064086914,1.4717576503753662 37.47800064086914,0 C37.47800064086914,-1.4717576503753662 12.86439323425293,12.86439323425293 12.86439323425293,12.86439323425293 C12.86439323425293,12.86439323425293 -1.4717576503753662,37.47800064086914 2.2948657287213655e-15,37.47800064086914 C1.4717576503753662,37.47800064086914 -12.86439323425293,12.86439323425293 -12.86439323425293,12.86439323425293 C-12.86439323425293,12.86439323425293 -37.47800064086914,-1.4717576503753662 -37.47800064086914,4.589731457442731e-15 C-37.47800064086914,1.4717576503753662 -12.86439323425293,-12.86439323425293 -12.86439323425293,-12.86439323425293 C-12.86439323425293,-12.86439323425293 1.4717576503753662,-37.47800064086914 2.2948657287213655e-15,-37.47800064086914z"></path><path stroke-linecap="butt" stroke-linejoin="miter" fill-opacity="0" stroke-miterlimit="4" stroke="rgb(29,58,64)" stroke-opacity="1" stroke-width="5" d=" M2.2948657287213655e-15,-37.47800064086914 C-1.4717576503753662,-37.47800064086914 12.86439323425293,-12.86439323425293 12.86439323425293,-12.86439323425293 C12.86439323425293,-12.86439323425293 37.47800064086914,1.4717576503753662 37.47800064086914,0 C37.47800064086914,-1.4717576503753662 12.86439323425293,12.86439323425293 12.86439323425293,12.86439323425293 C12.86439323425293,12.86439323425293 -1.4717576503753662,37.47800064086914 2.2948657287213655e-15,37.47800064086914 C1.4717576503753662,37.47800064086914 -12.86439323425293,12.86439323425293 -12.86439323425293,12.86439323425293 C-12.86439323425293,12.86439323425293 -37.47800064086914,-1.4717576503753662 -37.47800064086914,4.589731457442731e-15 C-37.47800064086914,1.4717576503753662 -12.86439323425293,-12.86439323425293 -12.86439323425293,-12.86439323425293 C-12.86439323425293,-12.86439323425293 1.4717576503753662,-37.47800064086914 2.2948657287213655e-15,-37.47800064086914z"></path></g></g></g></svg>